HIERARCHY
ROOT Hips
{
	OFFSET 0.000000 1.471914 24.280096
	CHANNELS 6 Xposition Yposition Zposition Xrotation Yrotation Zrotation
	JOINT Spine
	{
		OFFSET 0.000000 0.900110 1.860670
		CHANNELS 6 Xposition Yposition Zposition Xrotation Yrotation Zrotation
		JOINT Spine1
		{
			OFFSET 0.000000 0.400320 2.270309
			CHANNELS 6 Xposition Yposition Zposition Xrotation Yrotation Zrotation
			JOINT Spine2
			{
				OFFSET 0.000000 0.200920 2.296560
				CHANNELS 6 Xposition Yposition Zposition Xrotation Yrotation Zrotation
				JOINT Spine3
				{
					OFFSET 0.000000 0.000000 2.305330
					CHANNELS 6 Xposition Yposition Zposition Xrotation Yrotation Zrotation
					JOINT Neck
					{
						OFFSET 0.000000 -0.864490 6.051487
						CHANNELS 6 Xposition Yposition Zposition Xrotation Yrotation Zrotation
						JOINT Head
						{
							OFFSET 0.000000 -0.550429 3.121674
							CHANNELS 6 Xposition Yposition Zposition Xrotation Yrotation Zrotation
							End Site
							{
								OFFSET 0.000000 0.000000 3.731750
							}
						}
					}
					JOINT RightShoulder
					{
						OFFSET -0.788280 -1.313800 4.256718
						CHANNELS 6 Xposition Yposition Zposition Xrotation Yrotation Zrotation
						JOINT RightArm
						{
							OFFSET -3.915130 0.000000 0.000000
							CHANNELS 6 Xposition Yposition Zposition Xrotation Yrotation Zrotation
							JOINT RightForeArm
							{
								OFFSET -6.914910 0.000000 0.000000
								CHANNELS 6 Xposition Yposition Zposition Xrotation Yrotation Zrotation
								JOINT RightHand
								{
									OFFSET -6.096219 0.000000 0.000000
									CHANNELS 6 Xposition Yposition Zposition Xrotation Yrotation Zrotation
									JOINT RightHandEnd
									{
										OFFSET -1.749950 0.000000 0.000000
										CHANNELS 6 Xposition Yposition Zposition Xrotation Yrotation Zrotation
										End Site
										{
											OFFSET -1.749950 0.000000 0.000000
										}
									}
									JOINT RightHandThumb1
									{
										OFFSET -0.699980 -1.166630 -0.466648
										CHANNELS 6 Xposition Yposition Zposition Xrotation Yrotation Zrotation
										End Site
										{
											OFFSET -1.690319 -0.452920 0.000000
										}
									}
								}
							}
						}
					}
					JOINT LeftShoulder
					{
						OFFSET 0.788280 -1.313800 4.256718
						CHANNELS 6 Xposition Yposition Zposition Xrotation Yrotation Zrotation
						JOINT LeftArm
						{
							OFFSET 3.915130 0.000000 0.000000
							CHANNELS 6 Xposition Yposition Zposition Xrotation Yrotation Zrotation
							JOINT LeftForeArm
							{
								OFFSET 6.914910 0.000000 0.000000
								CHANNELS 6 Xposition Yposition Zposition Xrotation Yrotation Zrotation
								JOINT LeftHand
								{
									OFFSET 6.096219 0.000000 0.000000
									CHANNELS 6 Xposition Yposition Zposition Xrotation Yrotation Zrotation
									JOINT LeftHandEnd
									{
										OFFSET 1.749950 0.000000 0.000000
										CHANNELS 6 Xposition Yposition Zposition Xrotation Yrotation Zrotation
										End Site
										{
											OFFSET 1.749950 0.000000 0.000000
										}
									}
									JOINT LeftHandThumb1
									{
										OFFSET 0.699980 -1.166630 -0.466648
										CHANNELS 6 Xposition Yposition Zposition Xrotation Yrotation Zrotation
										End Site
										{
											OFFSET 1.690319 -0.452920 0.000000
										}
									}
								}
							}
						}
					}
				}
			}
		}
	}
	JOINT RightUpLeg
	{
		OFFSET -2.338570 -0.252550 -0.551512
		CHANNELS 6 Xposition Yposition Zposition Xrotation Yrotation Zrotation
		JOINT RightLeg
		{
			OFFSET 0.000000 0.000000 -10.744959
			CHANNELS 6 Xposition Yposition Zposition Xrotation Yrotation Zrotation
			JOINT RightFoot
			{
				OFFSET 0.000000 -0.000001 -10.930849
				CHANNELS 6 Xposition Yposition Zposition Xrotation Yrotation Zrotation
				JOINT RightToeBase
				{
					OFFSET 0.000000 -4.087269 -1.487650
					CHANNELS 6 Xposition Yposition Zposition Xrotation Yrotation Zrotation
					End Site
					{
						OFFSET 0.000000 -1.891870 0.000000
					}
				}
			}
		}
	}
	JOINT LeftUpLeg
	{
		OFFSET 2.338570 -0.252550 -0.551512
		CHANNELS 6 Xposition Yposition Zposition Xrotation Yrotation Zrotation
		JOINT LeftLeg
		{
			OFFSET 0.000000 0.000000 -10.744959
			CHANNELS 6 Xposition Yposition Zposition Xrotation Yrotation Zrotation
			JOINT LeftFoot
			{
				OFFSET 0.000000 -0.000001 -10.930849
				CHANNELS 6 Xposition Yposition Zposition Xrotation Yrotation Zrotation
				JOINT LeftToeBase
				{
					OFFSET 0.000000 -4.087269 -1.487650
					CHANNELS 6 Xposition Yposition Zposition Xrotation Yrotation Zrotation
					End Site
					{
						OFFSET 0.000000 -1.891870 0.000000
					}
				}
			}
		}
	}
}
MOTION
Frames: 5
Frame Time: 0.041667
0.000025 26.688543 39.984932 -8.196236 1.640274 -19.798027 -0.000022 0.900106 1.860699 20.104974 0.875432 -1.024574 0.000011 0.400270 2.270327 -0.000004 -0.000001 0.000008 0.000016 0.200891 2.296549 0.000001 -0.000001 -0.000002 0.000030 0.000008 2.305336 -0.000055 0.000003 -0.719684 -0.000013 -0.864461 6.051448 9.065899 -5.960307 179.427772 0.000011 -0.550426 3.121696 -0.000007 -0.000000 -0.000002 -0.788277 -1.313729 4.256793 -139.598207 57.393656 -40.928334 -3.915111 -0.000011 -0.000031 0.000000 0.000001 -0.000003 -6.914914 -0.000014 0.000001 0.000015 -0.000001 -30.783482 -6.096194 0.000002 0.000025 -0.000144 -0.000136 -0.000100 -1.749894 -0.000031 0.000038 0.000002 0.000004 0.000001 -0.699975 -1.166640 -0.466656 -0.000007 -0.000004 0.000001 0.788259 -1.313784 4.256741 -144.485521 -63.639919 34.701961 3.915170 0.000005 -0.000038 -0.000000 0.000001 0.000006 6.914938 -0.000040 -0.000003 0.000008 -0.000003 21.185046 6.096226 0.000082 -0.000029 -0.000043 0.000106 0.000029 1.749976 0.000008 0.000029 -0.000000 -0.000005 -0.000000 0.699950 -1.166616 -0.466625 0.000007 0.000003 -0.000028 -2.338564 -0.252543 -0.551494 19.321359 -1.061371 -0.981799 0.000013 -0.000025 -10.744964 8.247679 0.172370 -0.553190 -0.000029 0.000095 -10.930836 -0.000005 -0.000001 0.000002 0.000009 -4.087268 -1.487642 0.000004 0.000001 -0.000000 2.338573 -0.252543 -0.551461 16.627703 -1.938130 -0.860490 -0.000001 -0.000036 -10.744901 10.519233 2.185286 -0.879064 -0.000011 0.000018 -10.930867 0.000005 0.000001 -0.000007 -0.000016 -4.087236 -1.487650 -0.000006 -0.000000 0.000001 
0.000028 26.688543 39.984947 -8.168061 1.834931 -19.659627 -0.000020 0.900104 1.860691 20.107138 0.532484 -0.990570 0.000012 0.400271 2.270325 -0.000003 -0.000001 0.000009 0.000015 0.200892 2.296547 0.000001 -0.000001 0.000002 0.000031 0.000008 2.305332 -0.000058 0.000003 -0.737609 -0.000010 -0.864452 6.051455 9.058329 -5.405988 179.311235 0.000009 -0.550427 3.121693 -0.000003 -0.000000 -0.000003 -0.788273 -1.313722 4.256789 -141.918244 57.954059 -38.610882 -3.915102 -0.000014 -0.000031 0.000000 0.000000 0.000000 -6.914915 -0.000018 0.000001 0.000015 0.000001 -30.526923 -6.096193 0.000003 0.000023 -0.000147 -0.000137 -0.000097 -1.749894 -0.000031 0.000031 -0.000003 0.000001 -0.000001 -0.699978 -1.166638 -0.466660 -0.000012 -0.000009 -0.000003 0.788262 -1.313778 4.256736 -148.102202 -63.812251 30.760495 3.915169 0.000006 -0.000027 -0.000000 -0.000001 0.000005 6.914931 -0.000041 -0.000003 0.000012 0.000002 21.722747 6.096228 0.000090 -0.000033 -0.000048 0.000114 0.000025 1.749973 0.000010 0.000026 -0.000002 -0.000006 -0.000000 0.699947 -1.166615 -0.466633 0.000007 -0.000001 -0.000022 -2.338564 -0.252540 -0.551502 19.343039 -1.061397 -0.949535 0.000013 -0.000028 -10.744968 8.240297 -0.079572 -0.539191 -0.000028 0.000094 -10.930834 -0.000003 0.000000 0.000003 0.000009 -4.087269 -1.487641 0.000005 0.000002 -0.000003 2.338574 -0.252544 -0.551460 16.806582 -1.940394 -0.840592 -0.000001 -0.000033 -10.744897 10.544727 2.260381 -0.863627 -0.000011 0.000022 -10.930866 0.000005 0.000000 -0.000009 -0.000018 -4.087235 -1.487650 0.000001 0.000002 0.000003 
0.000035 26.688547 39.984966 -8.248836 2.094236 -19.378650 -0.000023 0.900112 1.860698 20.229186 0.169246 -0.964153 0.000010 0.400272 2.270325 -0.000003 -0.000001 0.000008 0.000016 0.200894 2.296539 0.000002 -0.000001 -0.000002 0.000030 0.000008 2.305328 -0.000058 0.000001 -0.612732 -0.000010 -0.864460 6.051455 8.956011 -5.474125 179.861202 0.000010 -0.550426 3.121693 -0.000003 -0.000001 -0.000004 -0.788275 -1.313728 4.256794 -144.062910 58.490523 -36.448813 -3.915103 -0.000013 -0.000027 -0.000000 -0.000000 -0.000001 -6.914925 -0.000009 0.000002 0.000015 0.000001 -30.607567 -6.096195 0.000001 0.000021 -0.000148 -0.000132 -0.000102 -1.749895 -0.000030 0.000035 -0.000003 -0.000003 0.000001 -0.699978 -1.166642 -0.466656 -0.000012 -0.000009 0.000002 0.788266 -1.313781 4.256743 -150.655053 -63.654351 27.897952 3.915168 0.000008 -0.000034 0.000003 0.000003 0.000005 6.914929 -0.000045 0.000004 0.000012 0.000004 22.377778 6.096227 0.000088 -0.000027 -0.000045 0.000113 0.000026 1.749972 0.000010 0.000025 -0.000001 -0.000005 0.000003 0.699947 -1.166613 -0.466630 0.000007 -0.000002 -0.000021 -2.338565 -0.252534 -0.551498 19.564672 -1.078229 -0.928421 0.000015 -0.000027 -10.744966 8.163241 -0.090662 -0.523438 -0.000029 0.000096 -10.930836 -0.000003 0.000001 0.000002 0.000010 -4.087268 -1.487638 0.000004 0.000002 -0.000000 2.338573 -0.252535 -0.551463 17.093926 -1.947997 -0.826964 -0.000002 -0.000035 -10.744897 10.395915 2.118644 -0.836184 -0.000012 0.000016 -10.930863 0.000007 -0.000000 -0.000005 -0.000016 -4.087232 -1.487649 -0.000005 -0.000002 -0.000004 
0.000035 26.688545 39.984982 -8.359681 2.266442 -19.107464 -0.000022 0.900105 1.860702 20.308669 -0.157029 -0.955926 0.000011 0.400275 2.270329 -0.000004 -0.000001 0.000006 0.000015 0.200892 2.296551 0.000001 -0.000001 -0.000000 0.000031 0.000005 2.305325 -0.000055 0.000003 -0.634784 -0.000010 -0.864459 6.051451 8.894251 -5.426617 179.821314 0.000009 -0.550424 3.121700 -0.000001 0.000000 -0.000005 -0.788271 -1.313731 4.256803 -145.092534 58.305978 -35.375489 -3.915099 -0.000014 -0.000027 0.000000 0.000003 0.000000 -6.914915 -0.000011 0.000006 0.000015 0.000001 -30.832140 -6.096190 0.000003 0.000021 -0.000147 -0.000138 -0.000099 -1.749896 -0.000032 0.000037 -0.000003 0.000002 -0.000001 -0.699975 -1.166639 -0.466657 -0.000010 -0.000008 -0.000000 0.788263 -1.313782 4.256742 -153.938899 -63.809301 24.677282 3.915166 0.000002 -0.000030 0.000004 -0.000001 0.000008 6.914927 -0.000040 0.000000 0.000005 -0.000003 22.753221 6.096230 0.000087 -0.000034 -0.000043 0.000108 0.000027 1.749968 0.000014 0.000025 0.000001 -0.000005 -0.000001 0.699940 -1.166611 -0.466631 0.000007 -0.000003 -0.000020 -2.338565 -0.252544 -0.551495 19.607938 -0.878101 -0.918525 0.000015 -0.000026 -10.744964 8.262200 -0.458751 -0.496235 -0.000027 0.000093 -10.930835 -0.000003 0.000001 0.000001 0.000010 -4.087273 -1.487640 0.000008 0.000002 0.000000 2.338573 -0.252543 -0.551466 17.317706 -1.682696 -0.826697 -0.000002 -0.000034 -10.744896 10.457080 1.804275 -0.786445 -0.000012 0.000016 -10.930870 0.000003 0.000001 -0.000005 -0.000017 -4.087236 -1.487651 -0.000006 0.000001 -0.000003 
0.000035 26.688553 39.984985 -8.455790 2.457840 -18.793310 -0.000022 0.900108 1.860699 20.441088 -0.373628 -0.926882 0.000013 0.400270 2.270327 -0.000003 -0.000001 0.000007 0.000016 0.200894 2.296549 0.000001 -0.000001 -0.000000 0.000031 0.000007 2.305336 -0.000058 0.000001 -0.744885 -0.000011 -0.864464 6.051451 8.953064 -5.658462 180.058157 0.000011 -0.550423 3.121696 -0.000006 0.000001 -0.000005 -0.788271 -1.313737 4.256794 -146.462301 58.508377 -34.093931 -3.915101 -0.000012 -0.000031 0.000001 0.000001 0.000001 -6.914916 -0.000014 0.000002 0.000015 0.000000 -30.918450 -6.096194 0.000002 0.000023 -0.000144 -0.000133 -0.000100 -1.749902 -0.000033 0.000035 -0.000003 0.000001 0.000003 -0.699987 -1.166643 -0.466653 -0.000010 -0.000008 -0.000000 0.788259 -1.313788 4.256739 -154.065353 -63.185233 24.558637 3.915172 0.000007 -0.000031 0.000004 -0.000001 0.000005 6.914935 -0.000044 0.000001 0.000007 -0.000002 22.716224 6.096230 0.000086 -0.000033 -0.000045 0.000111 0.000027 1.749975 0.000011 0.000020 -0.000000 -0.000003 -0.000001 0.699949 -1.166612 -0.466635 0.000006 -0.000001 -0.000023 -2.338564 -0.252538 -0.551499 19.870694 -0.980449 -0.896097 0.000014 -0.000023 -10.744964 8.329698 -0.282610 -0.500647 -0.000028 0.000095 -10.930837 -0.000005 -0.000002 -0.000000 0.000009 -4.087265 -1.487638 0.000004 0.000001 -0.000006 2.338574 -0.252541 -0.551467 17.390968 -1.657397 -0.799911 -0.000002 -0.000034 -10.744899 10.312410 1.692202 -0.753844 -0.000011 0.000021 -10.930866 0.000005 0.000000 -0.000008 -0.000017 -4.087230 -1.487653 -0.000004 -0.000001 -0.000004 
